# xmcd CD database file
#
# Track frame offsets:
#	150
#	9722
#	30573
#	44254
#	54553
#	69003
#	88135
#	99144
#	112466
#	119063
#	133094
#	145702
#
# Disc length: 2161 seconds
#
# Revision: 0
# Processed by: cddbd v1.4PL0 Copyright (c) Steve Scherf et al.
# Submitted via: CDex 1.51
#
DISCID=a6086f0c
DTITLE=Conny Devanney - An Evening at Jeff's
DYEAR=1994
DGENRE=Jazz
TTITLE0=Some of these days
TTITLE1=Kansas/Can't say no
TTITLE2=Its a sin to tell a lie
TTITLE3=If you knew Suzie
TTITLE4=Henry Greer
TTITLE5=Mood Indigo
TTITLE6=Red Riding Hood
TTITLE7=I'm confessin'
TTITLE8=All I want is a room
TTITLE9=Hard hearted Hannah
TTITLE10=Old feeling/Hadda be U
TTITLE11=Toot/April/Swanee
EXTD=YEAR: 1994
EXTT0=
EXTT1=
EXTT2=
EXTT3=
EXTT4=
EXTT5=
EXTT6=
EXTT7=
EXTT8=
EXTT9=
EXTT10=
EXTT11=
PLAYORDER=
